# xmcd CD database file
#
# Track frame offsets:
#	225
#	27980
#	53458
#	92220
#	119100
#	158385
#	186763
#	208180
#	232563
#	256958
#
# Disc length: 3660 seconds
#
# Revision: 1
# Processed by: cddbd v1.5.2PL0 Copyright (c) Steve Scherf et al.
# Submitted via: CDex 1.79
#
DISCID=7a0e490a
DTITLE=Modern Jazz Quartet - Together Again (Live At The Montreux Jazz Festival 82)
DYEAR=0
DGENRE=Jazz
TTITLE0=Django
TTITLE1=Jasmin Tree
TTITLE2=Odds Against Tomorrow
TTITLE3=The Cylinder
TTITLE4=The Martyr
TTITLE5=True Blues
TTITLE6=Traveling
TTITLE7=Monterey Mist
TTITLE8=Bags New Groove
TTITLE9=Woodin You
EXTD=YEAR: 0
EXTT0=
EXTT1=
EXTT2=
EXTT3=
EXTT4=
EXTT5=
EXTT6=
EXTT7=
EXTT8=
EXTT9=
PLAYORDER=
